<svg width="92" height="93" viewBox="0 0 92 93" fill="none" xmlns="http://www.w3.org/2000/svg">
<path id="Vector" d="M13.1429 0.964287C5.89375 0.964287 0 6.85804 0 14.1071V79.8214C0 87.0705 5.89375 92.9643 13.1429 92.9643H78.8571C86.1063 92.9643 92 87.0705 92 79.8214V14.1071C92 6.85804 86.1063 0.964287 78.8571 0.964287H13.1429ZM69.2054 37.3125L42.9196 63.5982C40.9893 65.5286 37.8679 65.5286 35.958 63.5982L22.8152 50.4554C20.8848 48.525 20.8848 45.4036 22.8152 43.4938C24.7455 41.5839 27.867 41.5634 29.7768 43.4938L39.4286 53.1455L62.2232 30.3304C64.1536 28.4 67.275 28.4 69.1848 30.3304C71.0946 32.2607 71.1152 35.3821 69.1848 37.292L69.2054 37.3125Z" fill="#5EAD8F"/>
</svg>
