<svg width="92" height="93" viewBox="0 0 92 93" fill="none" xmlns="http://www.w3.org/2000/svg">
<path id="Vector" d="M13.1429 0.964287C5.89375 0.964287 0 6.85804 0 14.1071V79.8214C0 87.0705 5.89375 92.9643 13.1429 92.9643H78.8571C86.1063 92.9643 92 87.0705 92 79.8214V14.1071C92 6.85804 86.1063 0.964287 78.8571 0.964287H13.1429ZM29.3661 30.3304C31.2964 28.4 34.4179 28.4 36.3277 30.3304L45.9795 39.9821L55.6313 30.3304C57.5616 28.4 60.683 28.4 62.5929 30.3304C64.5027 32.2607 64.5232 35.3821 62.5929 37.292L52.9411 46.9438L62.5929 56.5955C64.5232 58.5259 64.5232 61.6473 62.5929 63.5571C60.6625 65.467 57.5411 65.4875 55.6313 63.5571L45.9795 53.9054L36.3277 63.5571C34.3973 65.4875 31.2759 65.4875 29.3661 63.5571C27.4563 61.6268 27.4357 58.5054 29.3661 56.5955L39.0179 46.9438L29.3661 37.292C27.4357 35.3616 27.4357 32.2402 29.3661 30.3304Z" fill="#FF8086"/>
</svg>
