<svg width="92" height="93" viewBox="0 0 92 93" fill="none" xmlns="http://www.w3.org/2000/svg">
<rect y="0.964294" width="92" height="92" rx="15" fill="#FFC85E"/>
<path d="M50 25.5357C50 23.5603 48.2125 21.9643 46 21.9643C43.7875 21.9643 42 23.5603 42 25.5357V54.1072C42 56.0826 43.7875 57.6786 46 57.6786C48.2125 57.6786 50 56.0826 50 54.1072V25.5357ZM46 71.9643C47.3261 71.9643 48.5979 71.4939 49.5355 70.6567C50.4732 69.8195 51 68.684 51 67.5C51 66.316 50.4732 65.1805 49.5355 64.3433C48.5979 63.5061 47.3261 63.0357 46 63.0357C44.6739 63.0357 43.4021 63.5061 42.4645 64.3433C41.5268 65.1805 41 66.316 41 67.5C41 68.684 41.5268 69.8195 42.4645 70.6567C43.4021 71.4939 44.6739 71.9643 46 71.9643Z" fill="white"/>
</svg>
